{"title":"hot mom and son sex in bathroom","uid":8830370,"size":174051940,"categoryP":"porn","categoryS":"other","magnet":"?xt=urn:btih:723827987f599a9242d53619449602d732c4cf95&amp;dn=hot+mom+and+son+sex+in+bathroom&amp;tr=udp%3A%2F%2Ftracker.openbittorrent.com%3A80&amp;tr=udp%3A%2F%2Fopen.demonii.com%3A1337&amp;tr=udp%3A%2F%2Ftracker.coppersurfer.tk%3A6969&amp;tr=udp%3A%2F%2Fexodus.desync.com%3A6969","seeders":5,"leechers":1,"uploader":"raju0341","files":1,"time":1376957193,"description":"Format : Flash Video\nFile size : 166 MiB\nDuration : 39mn 53s\nOverall bit rate : 582 Kbps\nTagged date : UTC 2012-12-03 05:49:16\n\n\nvideo\nFormat : AVC\nFormat/Info : Advanced Video Codec\nFormat profile : &lt;a class=&quot;__cf_email__&quot; href=&quot;/cdn-cgi/l/email-protection&quot; data-cfemail=&quot;4e062729260e027c607e&quot;&gt;[email&amp;#160;protected]&lt;/a&gt;&lt;script cf-hash='f9e31' type=&quot;text/javascript&quot;&gt;\n/* &lt;![CDATA[ */!function(){try{var t=&quot;currentScript&quot;in document?document.currentScript:function(){for(var t=document.getElementsByTagName(&quot;script&quot;),e=t.length;e--;)if(t[e].getAttribute(&quot;cf-hash&quot;))return t[e]}();if(t&amp;&amp;t.previousSibling){var e,r,n,i,c=t.previousSibling,a=c.getAttribute(&quot;data-cfemail&quot;);if(a){for(e=&quot;&quot;,r=parseInt(a.substr(0,2),16),n=2;a.length-n;n+=2)i=parseInt(a.substr(n,2),16)^r,e+=String.fromCharCode(i);e=document.createTextNode(e),c.parentNode.replaceChild(e,c)}}}catch(u){}}();/* ]]&gt; */&lt;/script&gt;\nFormat settings, CABAC : Yes\nFormat settings, ReFrames : 4 frames\nCodec ID : 7\nDuration : 39mn 53s\nBit rate : 512 Kbps\nWidth : 320 pixels\nHeight : 240 pixels\nDisplay aspect ratio : 4:3\nFrame rate mode : Constant\nFrame rate : 29.970 fps\nColor space : YUV\nChroma subsampling : 4:2:0\nBit depth : 8 bits\nScan type : Progressive\nBits/(Pixel*Frame) : 0.222\nStream size : 146 MiB (88%)\nWriting library : x264 core 119\n\n\n\nAudio\nFormat : AAC\nFormat/Info : Advanced Audio Codec\nFormat profile : LC\nCodec ID : 10\nDuration : 39mn 53s\nBit rate : 59.6 Kbps\nChannel(s) : 2 channels\nChannel positions : Front: L R\nSampling rate : 44.1 KHz\nCompression mode : Lossy\nDelay relative to video : 66ms\nStream size : 17.0 MiB (10%)\n\n\n\n\n &lt;a href=&quot;\nhttp://www.flickimg.com/images/2013/08/19/my_mother_had_been_cleaning_the_bath_when_i_got_home.png&quot; rel=&quot;nofollow&quot; target=&quot;_NEW&quot;&gt;\nhttp://www.flickimg.com/images/2013/08/19/my_mother_had_been_cleaning_the_bath_when_i_got_home.png&lt;/a&gt;\n\n &lt;a href=&quot;\nhttp://www.flickimg.com/images/2013/08/19/bc.jpg&quot; rel=&quot;nofollow&quot; target=&quot;_NEW&quot;&gt;\nhttp://www.flickimg.com/images/2013/08/19/bc.jpg&lt;/a&gt;\n &lt;a href=&quot;\nhttp://www.flickimg.com/images/2013/08/19/bfbc.jpg&quot; rel=&quot;nofollow&quot; target=&quot;_NEW&quot;&gt;\nhttp://www.flickimg.com/images/2013/08/19/bfbc.jpg&lt;/a&gt;\n &lt;a href=&quot;\nhttp://www.flickimg.com/images/2013/08/19/bn.jpg&quot; rel=&quot;nofollow&quot; target=&quot;_NEW&quot;&gt;\nhttp://www.flickimg.com/images/2013/08/19/bn.jpg&lt;/a&gt;\n &lt;a href=&quot;\nhttp://www.flickimg.com/images/2013/08/19/v_b.jpg&quot; rel=&quot;nofollow&quot; target=&quot;_NEW&quot;&gt;\nhttp://www.flickimg.com/images/2013/08/19/v_b.jpg&lt;/a&gt;","torrent":{"xt":"urn:btih:723827987f599a9242d53619449602d732c4cf95","amp;dn":"hot+mom+and+son+sex+in+bathroom","amp;tr":["udp%3A%2F%2Ftracker.openbittorrent.com%3A80","udp%3A%2F%2Fopen.demonii.com%3A1337","udp%3A%2F%2Ftracker.coppersurfer.tk%3A6969","udp%3A%2F%2Fexodus.desync.com%3A6969"],"infoHash":"723827987f599a9242d53619449602d732c4cf95","infoHashBuffer":{"type":"Buffer","data":[114,56,39,152,127,89,154,146,66,213,54,25,68,150,2,215,50,196,207,149]},"announce":[],"urlList":[]}}